# xmcd CD database file
#
# Track frame offsets:
#	150
#	15550
#	37955
#	54820
#	71062
#	86597
#	100712
#	119065
#	134972
#	152902
#	169217
#	184557
#
# Disc length: 2680 seconds
#
# Revision: 0
# Processed by: cddbd v1.4PL0 Copyright (c) Steve Scherf et al.
# Submitted via: CDex 1.51
#
DISCID=a00a760c
DTITLE=Various Artist - O Melhor Forró Do Circuito Univrsitário
DYEAR=1900
DGENRE=Forró
TTITLE0=Santanna O Cantador - Ana Maria
TTITLE1=Accioly Netto - Espumas Ao Vento
TTITLE2=Saisse E Os Bois - Xorte Da Preguiça
TTITLE3=Paratados - Xote Coladinho
TTITLE4=Roberta De Recife and Geraldo Azevedo - Chuva Ou Sol
TTITLE5=Cynara Izenveny - Serenin, Serenin
TTITLE6=Paratodos - Viver Prá Mim
TTITLE7=Santanna O Cantador - Chamego Probibido
TTITLE8=Saisse and Os Bois - Namoro
TTITLE9=Cynara Izenveny - Valete De Copas
TTITLE10=Roberta De Recife - Quem Casa Quer Casa
TTITLE11=Accioly Netto - Lembrança De Um Beijo
EXTD=
EXTT0=
EXTT1=
EXTT2=
EXTT3=
EXTT4=
EXTT5=
EXTT6=
EXTT7=
EXTT8=
EXTT9=
EXTT10=
EXTT11=
PLAYORDER=
